<svg width="723.5" height="640" xmlns="http://www.w3.org/2000/svg">
 <defs>
  <linearGradient gradientUnits="objectBoundingBox" y2="0.942" x2="0.5" y1="0.328" x1="0.5" id="linear-gradient">
   <stop stop-color="#00eb00" offset="0.28"/>
   <stop stop-color="#00e700" offset="0.51"/>
   <stop stop-color="#00db00" offset="0.73"/>
   <stop stop-color="#00c800" offset="0.95"/>
   <stop stop-color="#00c200" offset="1"/>
  </linearGradient>
 </defs>
 <g>
  <title>Layer 1</title>
  <g stroke="null" data-name="Capa 1" id="Capa_1">
   <path stroke="null" fill="url(#linear-gradient)" d="m532.27515,603.34146l-31.28428,19.75917l-7.0072,-5.83775a148.52094,123.55883 0 0 1 -29.43819,-36.88434a486.71277,404.91033 0 0 1 -102.79547,7.57174a440.8285,366.73788 0 0 1 -101.79302,-9.96629a142.50626,118.55505 0 0 1 -30.8178,39.26238l-7.0072,5.83775l-31.28428,-19.75917l-38.52969,20.33717l-6.01468,-8.14973c-2.62026,-4.03771 -71.27298,-99.62984 -71.27298,-266.41445a724.16365,602.45253 0 0 1 30.28184,-160.37712c-31.82024,-27.05843 -42.30127,-57.08114 -53.08998,-88.70573c-2.31258,-6.73777 -4.62515,-13.73151 -7.24541,-20.78305a545.82736,454.08945 0 0 0 -20.18789,-45.55427l-5.24051,-9.48738l11.91026,-3.30283a207.91344,172.96916 0 0 1 64.21615,-8.76075a188.47986,156.80181 0 0 1 127.91619,41.88813a413.05774,343.63459 0 0 1 138.15902,-19.24724a413.82198,344.27039 0 0 1 138.23842,19.24724a188.17218,156.54584 0 0 1 127.75739,-41.88813a207.13927,172.32511 0 0 1 64.18638,8.78553l11.91026,3.30283l-5.08171,9.49563a521.60983,433.9422 0 0 0 -20.23752,45.54601c-2.62026,7.0598 -4.96261,14.03702 -7.24541,20.78305c-10.78871,31.62459 -20.96206,61.6473 -53.08998,88.59013a724.15373,602.44428 0 0 1 30.28184,160.37712c0,166.79287 -68.65272,262.57491 -71.58066,266.61262l-6.01468,8.14973l-38.59917,-20.428z" data-name="Trazado 2326" id="Trazado_2326"/>
   <path stroke="null" fill="#7fff5d" d="m361.74008,288.78002c27.02636,0 79.89799,-25.49784 101.02878,-64.15745s-24.23738,-50.57457 -42.09284,-53.32418a448.26248,372.92243 0 0 0 -58.93594,-3.57531a448.25256,372.91417 0 0 0 -58.93594,3.57531c-17.93487,2.73309 -62.8961,14.78016 -42.09284,53.2994s74.00241,64.18223 101.02878,64.18223z" data-name="Trazado 2327" id="Trazado_2327"/>
   <path stroke="null" fill="#004a3d" d="m696.81539,11.16072a219.63512,182.72076 0 0 0 -68.00758,-9.33049l0,0a201.14444,167.33783 0 0 0 -131.01286,40.80645a440.27268,366.27548 0 0 0 -272.31817,0a201.14444,167.33783 0 0 0 -130.78458,-40.80645a220.0222,183.04279 0 0 0 -68.00758,9.33049l-23.97932,6.49832l10.36193,19.31329a527.84287,439.12764 0 0 1 19.85043,44.40654c2.55078,6.95246 4.96261,13.90491 7.19578,20.64268c10.74901,31.47596 20.84295,61.33354 51.5218,88.94519a731.31973,608.40588 0 0 0 -29.13051,158.41194c0,169.78193 70.55836,268.25578 73.57563,272.37605l11.98966,16.41506l19.49313,-10.29657l22.43099,-11.77459l17.17062,10.87456l15.88035,10.0406l13.99456,-11.77459a163.9348,136.38207 0 0 0 29.47789,-35.07604a454.74365,378.3143 0 0 0 95.28208,8.43047a523.97203,435.90738 0 0 0 96.47311,-6.43226a163.8554,136.31601 0 0 0 28.23724,32.88792l13.95485,11.74981l15.47341,-10.0406l17.17062,-10.87456l22.43099,11.83239l19.65193,10.29657l11.98966,-16.41506c3.48375,-4.12854 73.80391,-102.59413 73.80391,-272.18614a731.31973,608.40588 0 0 0 -29.09081,-158.19725c30.94683,-27.61165 40.85219,-57.47748 51.5218,-88.94519c2.2431,-6.75429 4.645,-13.70674 7.19578,-20.64268a542.90935,451.66187 0 0 1 19.85043,-44.58819l10.33215,-19.37935l-23.97932,-6.49832zm-47.74029,91.19937c-7.73174,25.74555 -14.47097,46.85889 -36.98136,67.31991c-14.08388,-37.90822 -27.85016,-66.35384 -33.11052,-76.71646c4.4862,-6.43226 18.1036,-21.3693 51.90888,-34.56411l-9.28008,-17.05911c-53.07013,20.79131 -64.91092,46.98274 -65.36748,48.08093l-1.54833,3.54228l1.85602,3.41017c0.69477,1.35416 70.78664,135.92793 70.78664,254.67289c0,134.12789 -46.42024,222.56114 -63.0549,249.20671l-32.10808,-16.927l-27.69135,17.50499a107.69853,89.5975 0 0 1 -18.183,-24.84553c9.59768,-2.32024 19.10604,-4.83039 28.46552,-7.72036l-7.73174,-17.70316a420.39247,349.73657 0 0 1 -289.81632,0l-7.72182,17.70316c9.35948,2.89823 18.85791,5.40838 28.46552,7.72036a107.69853,89.5975 0 0 1 -18.64948,24.84553l-27.62188,-17.50499l-32.08823,17.05911c-16.24758,-26.57952 -63.0549,-114.77331 -63.0549,-249.20671c0,-118.74496 70.09188,-253.32699 70.78664,-254.67289l1.85602,-3.41017l-1.54833,-3.54228c-0.46649,-1.09819 -12.22787,-27.24834 -65.36748,-48.08093l-9.66716,16.927c33.88469,13.26086 47.50209,28.32176 51.90888,34.49805c-5.26036,10.36263 -19.02664,38.61833 -33.11052,76.79078c-22.51039,-20.46928 -29.01141,-41.4505 -36.98136,-67.31991c-2.70958,-8.7525 -5.48864,-17.76096 -9.0518,-27.42174c-5.80625,-15.77101 -12.04921,-29.28784 -16.24758,-37.90822a165.32433,137.53806 0 0 1 162.46587,35.58798l5.10156,4.83039l7.34466,-2.25418a403.95632,336.06286 0 0 1 275.49424,0l7.27518,2.25418l5.18096,-4.83039a167.33915,139.21424 0 0 1 162.46587,-35.39807c-4.17852,8.62038 -10.36193,22.13721 -16.24758,37.90822c-3.63263,9.46261 -6.39184,18.47107 -9.1312,27.22357z" data-name="Trazado 2328" id="Trazado_2328"/>
   <path stroke="null" fill="#004a3d" d="m226.25094,183.32069a27.19509,22.62438 0 1 0 -27.10577,-22.62438a27.19509,22.62438 0 0 0 27.10577,22.62438z" data-name="Trazado 2329" id="Trazado_2329"/>
   <path stroke="null" fill="#004a3d" d="m496.92153,183.32069a27.19509,22.62438 0 1 0 -27.10577,-22.62438a27.19509,22.62438 0 0 0 27.10577,22.62438z" data-name="Trazado 2332" id="Trazado_2332"/>
   <path stroke="null" fill="#004a3d" d="m332.49046,190.36397a19.02664,15.82881 0 0 0 -18.94724,15.76275l0,9.03324a18.94724,15.76275 0 1 0 37.80515,0l0,-9.03324a19.02664,15.82881 0 0 0 -18.85791,-15.76275z" data-name="Trazado 2333" id="Trazado_2333"/>
   <path stroke="null" fill="#004a3d" d="m474.98679,188.7043c-12.12861,-19.12338 -40.75294,-25.35747 -52.45477,-27.10797a416.27351,346.30988 0 0 0 -121.57398,0c-11.70183,1.7505 -40.32616,7.98459 -52.45477,27.10797a53.46714,44.48085 0 0 0 1.2605,40.55874c23.40366,43.49826 80.99969,70.04475 111.97629,70.04475s88.59248,-26.72814 111.98622,-70.04475a53.46714,44.48085 0 0 0 1.2605,-40.55874zm-24.07858,32.07873c-19.45342,36.00084 -68.95048,58.06373 -89.49568,58.06373s-70.05218,-22.0629 -89.49568,-58.06373a31.15525,25.91895 0 0 1 -1.98504,-22.55007c5.80625,-9.03324 21.89503,-14.42511 35.10549,-16.45635a435.61776,362.40292 0 0 1 56.2462,-3.36063a435.85596,362.60109 0 0 1 56.41493,3.36063c13.22039,2.03124 29.29924,7.43137 35.10549,16.45635a30.8972,25.70427 0 0 1 -1.89572,22.55832l0,-0.00826z" data-name="Trazado 2334" id="Trazado_2334"/>
   <path stroke="null" fill="#004a3d" d="m391.06909,190.36397a19.02664,15.82881 0 0 0 -18.67926,15.76275l0,9.03324a18.94724,15.76275 0 1 0 37.80515,0l0,-9.03324a19.02664,15.82881 0 0 0 -19.12589,-15.76275z" data-name="Trazado 2335" id="Trazado_2335"/>
  </g>
 </g>
</svg>